<?xml version="1.0" ?><svg style="enable-background:new 0 0 512 512;" version="1.1" viewBox="0 0 512 512" xml:space="preserve" xmlns="http://www.w3.org/2000/svg" xmlns:xlink="http://www.w3.org/1999/xlink"><style type="text/css">
	.st0{display:none;fill:#FEFEFE;}
	.st1{fill:#1DB854;}
	.st2{fill:#FFFFFF;}
</style><g id="Layer_1"/><g id="Layer_2"><g><path class="st0" d="M0.4,512.4c0-170.7,0-341.3,0-512c170.7,0,341.3,0,512,0c0,170.7,0,341.3,0,512    C341.8,512.4,171.1,512.4,0.4,512.4z"/><path class="st1" d="M79.9,256.7c0-4.5-0.2-9.1,0.1-13.6c0.3-4.9,0.9-9.7,1.7-14.5c1.7-10.2,4.1-20.1,7.5-29.8    c3.8-10.9,8.6-21.3,14.4-31.3c5.6-9.6,12-18.6,19.3-27c5-5.7,10.4-11.1,16-16.2c9.4-8.5,19.6-15.7,30.5-22    c9.3-5.3,18.9-9.7,29-13.2c5.2-1.8,10.5-3.4,15.9-4.7c6.9-1.7,13.8-2.9,20.9-3.9c10-1.4,20.1-1.3,30.2-1.1    c6.9,0.1,13.8,1,20.7,2.1c9.2,1.5,18.3,3.7,27.2,6.7c9.1,3.1,18,6.8,26.5,11.4c7.7,4.1,15.1,8.7,22.1,13.9    c5.3,3.9,10.3,8,15.1,12.4c6.9,6.4,13.4,13.3,19.2,20.7c8.6,10.9,15.9,22.7,21.7,35.3c4.2,9,7.6,18.3,10.2,27.9    c2.4,8.8,4,17.7,5.1,26.7c1.3,10.5,0.9,21,0.7,31.5c-0.2,8.1-1.5,16-3.1,24c-2.2,11.2-5.6,22.1-10,32.7    c-3.6,8.6-7.8,16.8-12.7,24.8c-4.9,7.9-10.3,15.3-16.3,22.3c-6.1,7.2-12.8,13.9-20,20c-6.8,5.8-14,11.1-21.7,15.8    c-8.2,5-16.7,9.4-25.5,13.1c-6.8,2.8-13.8,5.2-20.9,7.2c-6.7,1.8-13.5,3.2-20.3,4.3c-11,1.7-22,2.1-33.1,1.8    c-7.8-0.2-15.5-1.1-23.2-2.4c-12.1-2-23.9-5.4-35.3-9.9c-15.1-6-29.2-13.9-42.1-23.8c-6.2-4.7-12.1-9.8-17.7-15.3    c-10-10-18.7-20.9-26.1-32.9c-7.1-11.5-12.8-23.6-17.1-36.3c-3-8.9-5.3-18.1-6.8-27.4c-0.8-5-1.5-10.1-1.9-15.2    C79.6,266.1,79.9,261.4,79.9,256.7C79.9,256.7,79.9,256.7,79.9,256.7z"/><path class="st2" d="M230.9,173.3c6.1-0.2,12.2,0.2,18.3,0.5c8.9,0.4,17.8,1.2,26.6,2.3c7.8,1,15.6,2.1,23.3,3.6    c8.3,1.6,16.6,3.5,24.8,5.8c8,2.2,15.9,4.8,23.6,7.8c10.6,4.1,20.8,9,30.7,14.7c9.1,5.3,11.3,17.7,3.8,25.8    c-2.6,2.8-5.9,4.3-9.7,4.9c-4.1,0.6-7.7-0.5-11.1-2.5c-12-7-24.7-12.3-38-16.5c-9.3-3-18.7-5.3-28.2-7.2    c-7.9-1.6-15.9-2.8-23.9-3.8c-5.6-0.7-11.3-1.2-16.9-1.6c-4.1-0.3-8.2-0.4-12.3-0.6c-5.5-0.3-10.9-0.2-16.4-0.2    c-4.8,0-9.6,0.4-14.4,0.6c-4.7,0.2-9.5,0.7-14.2,1.1c-4.3,0.4-8.6,1-12.8,1.7c-6.4,1-12.7,2.2-18.9,3.7c-3,0.8-6,1.6-9,2.5    c-5,1.4-9.8,1-14.2-1.9c-4.1-2.7-6.4-6.5-7.2-11.3c-1.3-8.3,4.1-16,11.4-18.1c6.9-2,13.9-3.8,21-5.2c5.5-1.1,11-2,16.5-2.8    c4.5-0.6,9-1,13.5-1.5c7.6-0.8,15.3-1.1,22.9-1.4C223.7,173.4,227.3,173.4,230.9,173.3z"/><path class="st2" d="M347.9,293.2c-2.4,0.1-4.6-0.6-6.7-1.8c-5.1-3-10.3-6-15.7-8.5c-7.3-3.5-14.8-6.4-22.5-9    c-6.6-2.2-13.3-4.1-20-5.7c-7.4-1.7-14.8-3.1-22.3-4.1c-5.4-0.7-10.8-1.3-16.2-1.7c-9.3-0.6-18.6-0.6-27.9-0.4    c-6.7,0.2-13.4,0.8-20.1,1.6c-6.7,0.9-13.3,2-19.8,3.6c-4.3,1-8.5,2.3-12.7,3.4c-8.3,2-15.3-2.5-17.2-10.5    c-1.5-6.5,2.9-13.7,9.3-15.7c10.9-3.3,21.9-5.7,33.1-7.3c5.9-0.9,11.8-1.5,17.7-2c3.7-0.3,7.5-0.4,11.2-0.6    c3.8-0.2,7.7-0.2,11.5-0.2c5,0.1,9.9,0.4,14.9,0.6c5.1,0.3,10.2,0.8,15.2,1.4c7.7,0.9,15.4,2.2,23,3.8c10.1,2.1,20.1,4.8,29.9,8.1    c13.7,4.6,26.8,10.5,39.3,17.8c2.7,1.6,5.4,3.1,7.3,5.7c5.8,8.4,1,19.5-8.8,21.4C349.6,293.2,348.8,293.2,347.9,293.2z"/><path class="st2" d="M229.6,292.3c3.6,0,7.1-0.2,10.7,0c4.7,0.3,9.5,0.6,14.2,1.1c7,0.8,14,1.9,20.9,3.3    c8.8,1.8,17.5,4.3,25.9,7.4c11.3,4.1,22.1,9.3,32.4,15.5c2.9,1.7,4.8,4.1,5.6,7.4c1.5,6.6-3.6,13.1-10.3,13.2    c-2.4,0-4.5-0.6-6.5-1.8c-10.2-6.2-21-11.2-32.3-15c-9.1-3.1-18.5-5.3-28-6.8c-5.4-0.8-10.8-1.6-16.2-1.9    c-7.3-0.5-14.6-0.8-21.9-0.6c-3.8,0.1-7.7,0.3-11.5,0.5c-5.9,0.4-11.8,1-17.7,1.9c-5.4,0.8-10.8,1.6-16.1,2.6    c-3.8,0.8-7.6,1.6-11.4,2.4c-4.5,1-8.4-0.3-11.2-3.9c-2.9-3.7-3.1-7.8-1-12c1.7-3.2,4.5-4.9,7.9-5.6c7.1-1.5,14.1-3,21.3-4.1    c6.2-1,12.4-1.8,18.7-2.4C211.9,292.6,220.8,292.2,229.6,292.3z"/></g></g></svg>